<svg width="51" height="51" viewBox="0 0 51 51" fill="none" xmlns="http://www.w3.org/2000/svg">
<g clip-path="url(#clip0_35_134)">
<mask id="mask0_35_134" style="mask-type:luminance" maskUnits="userSpaceOnUse" x="0" y="0" width="51" height="51">
<path d="M50.3252 0H0V50.3252H50.3252V0Z" fill="white"/>
</mask>
<g mask="url(#mask0_35_134)">
<path d="M25.1626 39.8408C33.2691 39.8408 39.8407 33.2692 39.8407 25.1626C39.8407 17.0561 33.2691 10.4844 25.1626 10.4844C17.056 10.4844 10.4844 17.0561 10.4844 25.1626C10.4844 33.2692 17.056 39.8408 25.1626 39.8408Z" fill="url(#paint0_linear_35_134)" style="mix-blend-mode:color-dodge"/>
<path d="M25.1626 48.1444C24.0094 48.1444 23.0658 47.2847 23.0658 46.1314V45.9637C23.0658 44.8104 24.0094 43.8668 25.1626 43.8668C26.3159 43.8668 27.2595 44.8104 27.2595 45.9637C27.2595 47.117 26.3159 48.1444 25.1626 48.1444ZM40.1344 42.2312C39.5892 42.2312 39.065 42.0215 38.6456 41.6231L38.373 41.3505C37.5552 40.5327 37.5552 39.2117 38.373 38.3939C39.1908 37.5761 40.5118 37.5761 41.3296 38.3939L41.6022 38.6665C42.42 39.4843 42.42 40.8053 41.6022 41.6231C41.2038 42.0215 40.6796 42.2312 40.1344 42.2312ZM10.1909 42.2312C9.6457 42.2312 9.12148 42.0215 8.70211 41.6231C7.88432 40.8053 7.88432 39.4843 8.70211 38.6665L8.9747 38.3939C9.79249 37.5761 11.1135 37.5761 11.9313 38.3939C12.7491 39.2117 12.7491 40.5327 11.9313 41.3505L11.6587 41.6231C11.2603 42.0215 10.7151 42.2312 10.1909 42.2312ZM46.1315 27.2595H45.9637C44.8104 27.2595 43.8668 26.3159 43.8668 25.1626C43.8668 24.0093 44.8104 23.0657 45.9637 23.0657C47.117 23.0657 48.1445 24.0093 48.1445 25.1626C48.1445 26.3159 47.2848 27.2595 46.1315 27.2595ZM4.36156 27.2595H4.19381C3.04052 27.2595 2.09692 26.3159 2.09692 25.1626C2.09692 24.0093 3.04052 23.0657 4.19381 23.0657C5.34709 23.0657 6.37457 24.0093 6.37457 25.1626C6.37457 26.3159 5.51484 27.2595 4.36156 27.2595ZM39.8618 12.5603C39.3166 12.5603 38.7924 12.3506 38.373 11.9522C37.5552 11.1344 37.5552 9.81341 38.373 8.99562L38.6456 8.72303C39.4634 7.90524 40.7844 7.90524 41.6022 8.72303C42.42 9.54081 42.42 10.8618 41.6022 11.6796L41.3296 11.9522C40.9312 12.3506 40.407 12.5603 39.8618 12.5603ZM10.4635 12.5603C9.9183 12.5603 9.39408 12.3506 8.9747 11.9522L8.70211 11.6587C7.88432 10.8409 7.88432 9.51984 8.70211 8.70206C9.51989 7.88428 10.8409 7.88428 11.6587 8.70206L11.9313 8.97466C12.7491 9.79244 12.7491 11.1135 11.9313 11.9313C11.5329 12.3506 10.9877 12.5603 10.4635 12.5603ZM25.1626 6.37452C24.0094 6.37452 23.0658 5.5148 23.0658 4.36151V4.19376C23.0658 3.04048 24.0094 2.09688 25.1626 2.09688C26.3159 2.09688 27.2595 3.04048 27.2595 4.19376C27.2595 5.34705 26.3159 6.37452 25.1626 6.37452Z" fill="url(#paint1_linear_35_134)" style="mix-blend-mode:color-dodge"/>
</g>
</g>
<defs>
<linearGradient id="paint0_linear_35_134" x1="25.1626" y1="10.4844" x2="25.1626" y2="39.8408" gradientUnits="userSpaceOnUse">
<stop stop-color="#F2F2F2"/>
<stop offset="1" stop-color="#E8E8E8"/>
</linearGradient>
<linearGradient id="paint1_linear_35_134" x1="25.1207" y1="2.09688" x2="25.1207" y2="48.1444" gradientUnits="userSpaceOnUse">
<stop stop-color="#F2F2F2"/>
<stop offset="1" stop-color="#E8E8E8"/>
</linearGradient>
<clipPath id="clip0_35_134">
<rect width="50.3252" height="50.3252" fill="white"/>
</clipPath>
</defs>
</svg>
